# xmcd CD database file
#
# Track frame offsets:
#	150
#	11785
#	30719
#	43680
#	61830
#
# Disc length: 1068 seconds
#
# Revision: 0
# Processed by: cddbd v1.5.1PL2 Copyright (c) Steve Scherf et al.
# Submitted via: Feurio! 1.68 - http://www.feurio.com
#
DISCID=39042a05
DTITLE=Marseille Figs - (From) The Dirty Canon
DYEAR=1900
DGENRE=
TTITLE0=Low Low Thing
TTITLE1=Cradle Song
TTITLE2=Honey How You Like Your Eggs
TTITLE3=Caesar's Revenge
TTITLE4=Dirty Little Monkey
EXTD=
EXTT0=
EXTT1=
EXTT2=
EXTT3=
EXTT4=
PLAYORDER=
